<?xml version="1.0" standalone="no"?>
<!DOCTYPE svg PUBLIC "-//W3C//DTD SVG 20010904//EN"
 "http://www.w3.org/TR/2001/REC-SVG-20010904/DTD/svg10.dtd">
<svg version="1.0" xmlns="http://www.w3.org/2000/svg"
 width="225.000000pt" height="225.000000pt" viewBox="0 0 225.000000 225.000000"
 preserveAspectRatio="xMidYMid meet">

<g transform="translate(0.000000,225.000000) scale(0.100000,-0.100000)"
fill="#000000" stroke="none">
<path d="M0 1125 l0 -1125 423 0 422 0 -3 565 -2 565 -120 0 -120 0 0 190 0
190 120 0 120 0 0 168 c0 201 11 277 51 359 59 122 153 176 359 207 14 2 -262
4 -612 5 l-638 1 0 -1125z"/>
<path d="M1648 2051 l3 -200 -155 -3 c-133 -3 -158 -6 -173 -21 -15 -15 -19
-40 -21 -167 l-4 -150 177 0 177 0 -5 -32 c-4 -18 -11 -98 -18 -178 -6 -80
-16 -151 -22 -157 -7 -9 -51 -13 -158 -13 l-149 0 0 -565 0 -565 475 0 475 0
0 1125 0 1125 -302 0 -303 0 3 -199z"/>
</g>
</svg>
