<?xml version="1.0" standalone="no"?>
<!DOCTYPE svg PUBLIC "-//W3C//DTD SVG 20010904//EN"
 "http://www.w3.org/TR/2001/REC-SVG-20010904/DTD/svg10.dtd">
<svg version="1.0" xmlns="http://www.w3.org/2000/svg"
 width="800.000000pt" height="800.000000pt" viewBox="0 0 800.000000 800.000000"
 preserveAspectRatio="xMidYMid meet">

<g transform="translate(0.000000,800.000000) scale(0.100000,-0.100000)"
fill="#000000" stroke="none">
<path d="M0 4000 l0 -4000 4000 0 4000 0 0 4000 0 4000 -4000 0 -4000 0 0
-4000z m5600 2646 c273 -65 488 -183 676 -370 191 -192 313 -418 371 -686 17
-80 18 -172 18 -1590 0 -1659 4 -1555 -61 -1749 -133 -398 -457 -722 -855
-855 -194 -65 -90 -61 -1749 -61 -1659 0 -1555 -4 -1749 61 -398 133 -722 457
-855 855 -65 194 -61 90 -61 1749 0 1659 -4 1555 61 1749 141 420 494 758 914
873 172 47 138 46 1720 44 1398 -2 1500 -3 1570 -20z"/>
<path d="M2600 6090 c-286 -29 -533 -215 -639 -482 -59 -147 -56 -74 -56
-1608 0 -1534 -3 -1461 56 -1608 94 -237 306 -416 564 -474 89 -19 2861 -19
2950 0 258 58 470 237 564 474 59 147 56 74 56 1608 0 1534 3 1461 -56 1608
-91 231 -287 400 -541 469 -58 16 -182 17 -1443 19 -759 1 -1414 -2 -1455 -6z
m2966 -383 c67 -34 138 -114 160 -180 51 -150 -6 -305 -141 -386 -51 -31 -67
-35 -145 -39 -79 -4 -93 -2 -149 23 -67 31 -127 88 -162 157 -34 65 -38 175
-8 253 29 77 104 154 179 184 78 30 194 25 266 -12z m-1461 -337 c523 -44 958
-359 1165 -844 136 -318 136 -734 0 -1052 -238 -558 -776 -886 -1381 -843
-665 48 -1204 587 -1258 1257 -23 292 39 560 192 819 218 371 625 627 1055
662 53 5 99 9 102 9 3 1 59 -3 125 -8z"/>
<path d="M3865 4786 c-338 -66 -592 -320 -650 -651 -19 -110 -19 -160 0 -270
45 -258 217 -479 457 -589 114 -52 196 -70 328 -70 131 0 214 18 327 69 179
82 316 219 397 397 52 114 70 196 70 328 0 132 -18 214 -70 328 -101 221 -299
386 -534 446 -91 23 -240 29 -325 12z"/>
</g>
</svg>
