<?xml version="1.0" standalone="no"?>
<!DOCTYPE svg PUBLIC "-//W3C//DTD SVG 20010904//EN"
 "http://www.w3.org/TR/2001/REC-SVG-20010904/DTD/svg10.dtd">
<svg version="1.0" xmlns="http://www.w3.org/2000/svg"
 width="564.000000pt" height="490.000000pt" viewBox="0 0 564.000000 490.000000"
 preserveAspectRatio="xMidYMid meet">

<g transform="translate(0.000000,490.000000) scale(0.100000,-0.100000)"
fill="#000000" stroke="none">
<path d="M0 2450 l0 -2450 2820 0 2820 0 0 2450 0 2450 -2820 0 -2820 0 0
-2450z m1624 2365 c21 -10 50 -36 64 -58 24 -37 27 -50 27 -133 1 -108 3 -111
120 -199 128 -96 277 -155 388 -155 72 0 100 15 137 75 12 20 30 35 40 35 19
0 21 -3 39 -76 l11 -42 129 -4 c128 -4 130 -4 212 -45 45 -22 88 -39 94 -37 7
3 23 26 36 52 20 40 24 61 24 142 0 87 -3 100 -33 157 -17 34 -32 77 -32 95 0
67 83 147 194 185 78 27 239 25 336 -6 96 -30 173 -69 241 -122 216 -171 369
-447 369 -663 -1 -207 -125 -420 -318 -544 -102 -66 -166 -72 -291 -27 -24 8
-54 15 -67 15 -21 0 -23 -3 -16 -32 4 -18 7 -91 7 -163 0 -115 -3 -138 -26
-202 -56 -152 -211 -321 -427 -464 -271 -179 -449 -246 -682 -256 -112 -4
-134 -8 -211 -39 -219 -86 -408 -95 -624 -27 -121 38 -216 92 -365 208 -226
177 -356 225 -489 181 -28 -9 -52 -16 -55 -16 -3 0 -6 20 -6 45 0 36 -6 52
-26 71 -24 25 -26 25 -44 9 -36 -33 -79 -110 -91 -163 -15 -74 -2 -142 82
-400 129 -395 133 -424 104 -657 -10 -79 -13 -141 -8 -180 l8 -60 145 -5 c186
-6 215 -18 247 -106 24 -65 29 -138 12 -198 -17 -60 -114 -150 -232 -214 l-98
-54 45 -30 c122 -80 268 -310 329 -516 15 -47 15 -54 1 -59 -36 -14 -61 14
-89 99 -70 212 -198 392 -303 423 -22 6 -23 5 -18 -42 3 -26 8 -118 11 -203 8
-193 9 -200 45 -200 36 0 47 -17 26 -38 -16 -16 -59 -20 -330 -32 -24 -1 -61
34 -52 49 4 6 23 11 43 11 l36 0 -7 158 c-6 132 -19 638 -21 818 l0 52 -31 -5
c-35 -6 -74 11 -74 31 0 18 15 23 98 32 l71 6 -3 337 -2 336 -38 170 c-56 252
-78 385 -71 431 8 59 58 156 105 208 37 40 39 45 23 54 -17 10 -16 12 7 37 93
100 295 128 574 80 226 -39 381 -30 439 25 18 16 18 20 3 71 -49 165 -19 393
79 594 35 73 35 72 -38 99 -66 25 -60 45 23 71 36 11 76 26 88 33 34 19 79
124 93 212 16 102 5 264 -24 349 l-22 66 -47 1 c-102 3 -168 73 -168 179 1
150 138 234 274 170z m1924 -3536 c23 -9 24 -13 18 -67 -9 -85 -12 -389 -4
-397 4 -4 63 -1 130 6 l123 14 7 130 c4 72 8 159 10 195 l3 65 -28 1 c-36 2
-66 29 -50 45 17 17 318 18 335 1 19 -19 -13 -45 -59 -46 -36 -2 -38 -4 -45
-41 -11 -61 -9 -439 2 -556 20 -208 29 -434 17 -441 -39 -25 -100 -41 -125
-32 -23 8 -28 17 -34 59 -13 89 -29 308 -31 425 l-2 115 -45 3 c-25 2 -84 -2
-131 -8 l-86 -12 4 -72 c2 -39 11 -130 19 -203 8 -73 14 -157 14 -188 l0 -55
39 0 c46 0 60 -15 37 -38 -13 -13 -33 -17 -84 -15 -37 1 -107 -2 -156 -8 -75
-8 -92 -7 -112 6 -38 24 -31 45 15 45 44 0 43 -9 21 167 -7 53 -12 266 -13
495 l-2 403 35 16 c27 12 47 13 94 6 33 -5 71 -13 84 -18z m1154 0 c13 -17 45
-55 71 -84 l49 -54 -11 -53 c-12 -62 -26 -191 -41 -378 -6 -74 -18 -178 -26
-230 -14 -93 -13 -128 8 -182 12 -33 30 -35 68 -8 39 28 43 46 24 126 -11 47
-14 89 -10 133 8 71 45 173 77 208 44 46 176 50 246 7 55 -34 88 -170 63 -259
-21 -75 -80 -121 -173 -139 -29 -5 -37 -11 -33 -22 3 -9 6 -20 6 -25 0 -5 19
-30 41 -54 44 -48 70 -55 107 -29 27 18 249 355 258 390 9 34 20 38 37 13 21
-29 13 -47 -77 -188 -139 -219 -197 -285 -262 -297 -90 -17 -168 16 -214 91
l-22 36 -40 -46 c-72 -82 -157 -107 -213 -63 -34 27 -71 104 -87 182 -8 45
-13 55 -19 40 -4 -10 -8 -32 -9 -49 -2 -81 -83 -221 -141 -245 -21 -9 -46 -8
-115 5 -102 19 -130 32 -178 81 -53 55 -70 116 -63 238 9 186 66 298 164 325
57 16 81 14 162 -16 69 -26 77 -32 113 -88 21 -32 41 -69 44 -82 6 -22 28 -31
38 -15 20 32 56 326 60 492 1 36 3 102 4 147 2 70 5 85 24 103 30 27 42 25 70
-11z m-1961 -21 c12 -18 46 -58 76 -88 l53 -56 -14 -74 c-8 -41 -17 -92 -20
-112 l-5 -38 49 0 c27 0 52 -5 55 -10 12 -20 -15 -38 -56 -38 -23 -1 -44 -3
-46 -6 -3 -3 -12 -65 -19 -138 -7 -73 -21 -160 -30 -193 -27 -99 -7 -259 33
-273 7 -2 37 20 66 50 63 64 133 193 151 280 7 34 18 64 26 66 10 4 11 -10 6
-69 -10 -100 -22 -130 -93 -230 -68 -95 -113 -138 -175 -170 -88 -45 -136 -23
-174 78 -22 61 -22 60 -38 37 -23 -30 -103 -25 -132 9 -30 35 -54 147 -54 251
0 140 24 164 90 89 28 -31 30 -39 29 -106 -1 -75 18 -197 31 -197 15 0 40 50
40 80 0 17 11 96 25 176 14 80 25 170 25 200 l0 54 -40 0 c-36 0 -40 3 -40 25
0 23 4 25 44 25 l43 0 7 53 c6 50 11 101 21 256 7 104 27 125 66 69z m-970 0
c7 -12 7 -13 -32 -163 -15 -60 -37 -155 -49 -210 -11 -55 -23 -109 -25 -120
-4 -18 0 -20 33 -17 20 1 66 -5 102 -15 56 -16 67 -23 82 -51 l16 -33 7 98
c13 186 75 464 109 491 38 31 166 46 182 21 2 -5 -13 -82 -35 -171 -86 -350
-85 -338 -33 -339 20 0 64 -8 97 -17 54 -15 62 -21 80 -57 17 -34 20 -59 20
-180 -1 -154 -9 -184 -64 -247 -44 -50 -110 -79 -197 -85 -107 -8 -131 15
-159 155 l-7 33 -25 -52 c-44 -87 -142 -139 -265 -139 -52 0 -59 3 -79 29
l-21 29 -38 -39 c-43 -46 -77 -50 -130 -18 -68 42 -93 86 -91 161 l2 60 -40
-31 c-21 -17 -42 -31 -47 -31 -4 0 -21 -12 -37 -27 -88 -85 -251 30 -250 176
1 110 72 235 157 276 75 35 131 40 198 18 47 -16 58 -17 75 -6 18 12 27 11 67
-9 64 -31 70 -58 57 -246 -5 -81 -7 -165 -3 -187 l7 -39 22 28 c21 26 22 35
16 119 -7 109 12 409 33 522 21 119 65 268 83 287 36 38 163 56 182 26z m746
-370 c34 -32 31 -86 -7 -123 -68 -65 -162 -6 -126 79 27 64 90 85 133 44z"/>
<path d="M3244 4569 c-12 -13 -27 -19 -41 -16 -28 5 -47 -15 -38 -43 5 -14 1
-22 -12 -26 -70 -22 -103 -61 -84 -97 6 -12 28 -32 47 -45 19 -12 39 -34 44
-48 6 -14 25 -47 42 -72 18 -26 31 -55 30 -65 -4 -24 70 -111 108 -127 28 -11
33 -10 54 9 12 11 25 21 29 21 4 0 7 -24 7 -54 0 -93 33 -291 55 -326 11 -17
54 -11 76 11 11 11 27 36 35 55 9 21 25 39 42 45 15 6 34 17 43 25 13 12 24
13 60 3 73 -19 91 -15 131 30 42 48 68 116 68 177 0 58 -61 148 -148 216 -37
29 -119 102 -182 163 -138 132 -169 149 -257 142 -47 -3 -63 -1 -63 8 0 7 -6
18 -13 24 -11 8 -18 6 -33 -10z"/>
<path d="M620 1239 c-63 -12 -94 -38 -102 -85 -11 -60 -9 -354 2 -354 23 0
189 105 232 147 55 54 93 132 83 172 -8 32 -53 99 -74 110 -28 15 -95 20 -141
10z"/>
<path d="M5048 653 c-23 -26 -38 -89 -38 -160 0 -63 0 -63 29 -63 40 0 71 13
104 43 24 23 27 33 27 92 0 52 -4 69 -20 85 -25 25 -81 26 -102 3z"/>
<path d="M4316 638 c-57 -90 -95 -255 -77 -338 16 -72 47 -130 71 -130 34 0
97 73 114 131 32 108 13 253 -42 327 -29 38 -46 40 -66 10z"/>
<path d="M1676 688 c-11 -18 -15 -64 -16 -198 -1 -96 -1 -182 -1 -190 1 -23
52 -19 85 7 34 27 61 107 77 232 17 121 11 137 -53 156 -68 20 -75 19 -92 -7z"/>
<path d="M2102 690 c-21 -20 -22 -27 -22 -209 l0 -189 26 -6 c34 -9 78 23 97
72 22 54 47 194 47 259 0 52 -1 55 -32 67 -65 27 -92 28 -116 6z"/>
<path d="M1124 618 c-48 -42 -110 -137 -118 -182 -9 -49 15 -106 46 -106 29 0
153 91 176 129 15 24 17 42 11 100 -3 40 -8 73 -10 75 -2 2 -18 7 -35 10 -27
6 -38 2 -70 -26z"/>
</g>
</svg>
